<svg width="512" height="512" viewBox="0 0 512 512" fill="none" xmlns="http://www.w3.org/2000/svg">
  <defs>
    <linearGradient id="grad3" x1="0%" y1="0%" x2="100%" y2="100%">
      <stop offset="0%" style="stop-color:#4F46E5;stop-opacity:1" />
      <stop offset="100%" style="stop-color:#EC4899;stop-opacity:1" />
    </linearGradient>
  </defs>
  
  <rect width="512" height="512" rx="120" fill="white"/>
  
  <!-- Chat Bubble Shape -->
  <path d="M100 100 H412 C440 100 462 122 462 150 V350 C462 378 440 400 412 400 H200 L100 460 V400 H100 C72 400 50 378 50 350 V150 C50 122 72 100 100 100 Z" fill="url(#grad3)" opacity="0.1"/>
  <path d="M100 100 H412 C440 100 462 122 462 150 V350 C462 378 440 400 412 400 H200 L100 460 V400 H100 C72 400 50 378 50 350 V150 C50 122 72 100 100 100 Z" stroke="url(#grad3)" stroke-width="20" stroke-linejoin="round"/>
  
  <!-- Tech/Code Symbols inside -->
  <path d="M180 200 L256 280 L180 360" stroke="url(#grad3)" stroke-width="30" stroke-linecap="round" stroke-linejoin="round"/>
  <path d="M332 200 L256 280 L332 360" stroke="url(#grad3)" stroke-width="30" stroke-linecap="round" stroke-linejoin="round"/>
  <circle cx="256" cy="180" r="20" fill="url(#grad3)"/>
</svg>